<svg xmlns="http://www.w3.org/2000/svg" width="20.322" height="17.933" viewBox="0 0 20.322 17.933">
  <path id="Shape_1" data-name="Shape 1" d="M288.618,19.213V15.946a1.005,1.005,0,0,0-1.5-.875A23.4,23.4,0,0,1,277.364,18c-.026,0-3.15.015-3.15.015a1.535,1.535,0,0,0-1.523,1.353h-.641a1.274,1.274,0,0,0-1.273,1.272v2.795a1.274,1.274,0,0,0,1.273,1.272h.641a1.536,1.536,0,0,0,.9,1.221l2.282,6.293a1,1,0,0,0,.936.655H279.1a1,1,0,0,0,.936-1.335l-1.96-5.4A23.361,23.361,0,0,1,287.12,29a1,1,0,0,0,1-.01.994.994,0,0,0,.5-.865V24.856a2.845,2.845,0,0,0,0-5.643ZM272.68,23.724h-.63a.291.291,0,0,1-.291-.291V20.638a.291.291,0,0,1,.291-.291h.63Zm1.309,1.3a.553.553,0,0,1-.327-.5V19.547h0a.552.552,0,0,1,.552-.552h2.672v6.081l-2.707,0A.513.513,0,0,1,273.989,25.028Zm5.127,6.846a.011.011,0,0,1,0,.013.011.011,0,0,1-.012.006h-2.29a.014.014,0,0,1-.013-.009l-2.113-5.827H277Zm8.521-3.75a.018.018,0,0,1-.011.019.023.023,0,0,1-.026,0,24.352,24.352,0,0,0-9.731-3.013V18.941a24.364,24.364,0,0,0,9.731-3.013.022.022,0,0,1,.026,0,.018.018,0,0,1,.011.019Zm.982-4.261V20.207a1.864,1.864,0,0,1,0,3.656Z" transform="translate(-270.776 -14.941)" fill="#a5aebd"/>
</svg>
