<svg xmlns="http://www.w3.org/2000/svg" width="17.894" height="17.894" viewBox="0 0 17.894 17.894">
  <path id="Forma_1" data-name="Forma 1" d="M536.822,32.942a.7.7,0,0,1-.7-.7V23.995a8.947,8.947,0,1,1,8.947,8.947Zm.7-8.947v7.549h7.549a7.549,7.549,0,1,0-7.549-7.549Zm6.349,3.986a.935.935,0,0,1,.925-.937.938.938,0,1,1,0,1.876A.936.936,0,0,1,543.871,27.981Zm.243-2.594a2.231,2.231,0,0,1,.816-1.852c.4-.341,1.084-.719,1.084-1.377,0-.56-.487-.828-1.1-.828-1.243,0-.975.938-1.633.938a.7.7,0,0,1-.731-.694c0-.658.755-1.633,2.4-1.633,1.56,0,2.6.865,2.6,2.01a3.12,3.12,0,0,1-1.364,2.229A1.53,1.53,0,0,0,545.5,25.7c0,.231-.122.5-.718.5C544.285,26.2,544.114,26.02,544.114,25.387Z" transform="translate(-536.124 -15.048)" fill="#a5aebd"/>
</svg>
