<svg xmlns="http://www.w3.org/2000/svg" width="17.777" height="17.775" viewBox="0 0 17.777 17.775">
  <path id="Forma_1" data-name="Forma 1" d="M414.3,32.18v-3.9l-1.107,1.1a.694.694,0,1,1-.981-.983l2.051-2.047a1.035,1.035,0,0,1,1.463,0l2.051,2.047a.695.695,0,0,1-.982.983l-1.106-1.1v3.9a.694.694,0,0,1-1.389,0Zm-11.319.694A2.78,2.78,0,0,1,400.2,30.1V22.616a2.8,2.8,0,0,1,1.078-2.2l6.286-4.857a.659.659,0,0,1,.058-.04,2.762,2.762,0,0,1,2.934,0c.02.013.039.026.058.04l6.285,4.857a2.725,2.725,0,0,1,.457.447.706.706,0,0,1,.134.135.68.68,0,0,1,.113.227,2.784,2.784,0,0,1,.374,1.388v1.442a.694.694,0,1,1-1.389,0V22.616c0-.021,0-.041,0-.062l-5.979,4.522-.052.036a2.76,2.76,0,0,1-2.934,0l-.049-.033-4.143-3.1a.694.694,0,1,1,.833-1.111l4.117,3.081a1.38,1.38,0,0,0,1.419,0l6.056-4.581-6.06-4.683a1.379,1.379,0,0,0-1.412,0l-6.254,4.834a1.4,1.4,0,0,0-.539,1.1V30.1a1.39,1.39,0,0,0,1.389,1.389h8.541a.694.694,0,1,1,0,1.389Z" transform="translate(-400.199 -15.1)" fill="#fff"/>
</svg>
